<svg xmlns="http://www.w3.org/2000/svg" viewBox="0 0 64 64">
  <rect width="64" height="64" rx="14" fill="#171717"/>
  <path fill="#ff6418" d="M24 18.5A6.5 6.5 0 0 1 30.5 12h3A6.5 6.5 0 0 1 40 18.5V22h7.5A6.5 6.5 0 0 1 54 28.5v16A7.5 7.5 0 0 1 46.5 52h-29A7.5 7.5 0 0 1 10 44.5v-16A6.5 6.5 0 0 1 16.5 22H24v-3.5Zm5 3.5h6v-3.5a1.5 1.5 0 0 0-1.5-1.5h-3a1.5 1.5 0 0 0-1.5 1.5V22Zm-13 6a1 1 0 0 0-1 1v5.6l13.2 3.8c2.5.7 5.1.7 7.6 0L49 34.6V29a1 1 0 0 0-1-1H16Zm33 12-11.8 3.4a19.2 19.2 0 0 1-10.4 0L15 40v4.5a2.5 2.5 0 0 0 2.5 2.5h29a2.5 2.5 0 0 0 2.5-2.5V40Z"/>
</svg>
